<svg width="190" height="199" viewBox="0 0 190 199" fill="none" xmlns="http://www.w3.org/2000/svg">
<mask id="mask0_492_290" style="mask-type:luminance" maskUnits="userSpaceOnUse" x="-1" y="0" width="191" height="199">
<path d="M189.014 0H-0.00366211V198.469H189.014V0Z" fill="white"/>
</mask>
<g mask="url(#mask0_492_290)">
<path d="M-0.00362382 51.6676C0.00640834 49.4769 0.590049 47.3272 1.68914 45.4321C2.78824 43.5371 4.36449 41.963 6.26102 40.8665L75.4687 0.916234C76.533 0.296733 77.7467 -0.0197684 78.9777 0.000956244C80.2093 0.0216809 81.4118 0.378857 82.4542 1.03382C83.4972 1.6888 84.3416 2.61652 84.895 3.71669C85.4484 4.81686 85.6901 6.04757 85.5944 7.27535L81.8275 58.0808C81.2775 65.5604 78.0684 72.5957 72.7817 77.9154C67.4945 83.2346 60.4782 86.4856 53.0024 87.0815L7.30062 90.7404C6.36963 90.8165 5.43287 90.6985 4.54977 90.3941C3.66665 90.0897 2.85633 89.6051 2.17006 88.9717C1.48392 88.3388 0.936476 87.5705 0.562335 86.7155C0.188192 85.86 -0.0044991 84.9367 -0.00362382 84.0034V51.6676ZM189.014 51.6676C189.005 49.4769 188.42 47.3272 187.321 45.4321C186.222 43.5371 184.647 41.963 182.75 40.8665L113.555 0.916234C112.491 0.296733 111.278 -0.0197684 110.046 0.000956244C108.815 0.0216809 107.613 0.378857 106.57 1.03382C105.527 1.6888 104.683 2.61652 104.13 3.71669C103.576 4.81686 103.334 6.04757 103.43 7.27535L107.183 58.0808C107.737 65.5615 110.948 72.5974 116.237 77.916C121.526 83.2351 128.544 86.4861 136.022 87.0815L181.71 90.7404C182.642 90.8171 183.58 90.699 184.465 90.3946C185.348 90.0897 186.159 89.6045 186.846 88.97C187.532 88.3355 188.08 87.5649 188.453 86.7077C188.827 85.8505 189.017 84.925 189.014 83.9899V51.6676ZM-0.00362382 146.177C0.00775854 148.367 0.591997 150.517 1.69097 152.411C2.78992 154.306 4.3654 155.881 6.26102 156.978L75.4687 196.929C76.533 197.548 77.7467 197.864 78.9777 197.844C80.2093 197.822 81.4118 197.466 82.4542 196.811C83.4972 196.155 84.3416 195.227 84.895 194.127C85.4484 193.027 85.6901 191.797 85.5944 190.569L81.8275 139.764C81.2775 132.284 78.0684 125.248 72.7817 119.929C67.4945 114.61 60.4782 111.358 53.0024 110.762L7.30062 107.09C6.36868 107.013 5.43099 107.132 4.54696 107.436C3.66294 107.741 2.85183 108.226 2.16512 108.861C1.47842 109.495 0.931049 110.266 0.557724 111.123C0.184392 111.981 -0.00677329 112.906 -0.00362382 113.841V146.177ZM189.014 113.895C189.017 112.96 188.827 112.034 188.453 111.177C188.08 110.32 187.532 109.549 186.846 108.915C186.159 108.28 185.348 107.795 184.465 107.49C183.58 107.186 182.642 107.068 181.71 107.144L136.022 110.817C128.544 111.412 121.526 114.663 116.237 119.982C110.948 125.301 107.737 132.337 107.183 139.818L103.43 190.623C103.334 191.851 103.576 193.082 104.13 194.181C104.683 195.281 105.527 196.209 106.57 196.865C107.613 197.52 108.815 197.876 110.046 197.898C111.278 197.918 112.491 197.601 113.555 196.982L182.75 157.032C184.645 155.934 186.221 154.36 187.32 152.465C188.419 150.57 189.004 148.421 189.014 146.231V113.895Z" fill="url(#paint0_linear_492_290)"/>
</g>
<defs>
<linearGradient id="paint0_linear_492_290" x1="94.5054" y1="0" x2="94.5054" y2="197.899" gradientUnits="userSpaceOnUse">
<stop stop-color="#49F9AA"/>
<stop offset="1" stop-color="#309367"/>
</linearGradient>
</defs>
</svg>
